<svg width="2550" height="2550" viewBox="0 0 2550 2550" fill="none" xmlns="http://www.w3.org/2000/svg">
<g clip-path="url(#clip0_118_1078)">
<path d="M1883.6 2196.9C1872.46 2216.19 1844.62 2216.19 1833.49 2196.9L1298.98 1271.11C1050.29 840.365 1361.16 301.928 1858.54 301.928V301.928V301.928C2355.93 301.929 2666.79 840.365 2418.1 1271.11L1883.6 2196.9Z" fill="#5850EC"/>
<circle cx="1858.47" cy="949.279" r="323.062" fill="white"/>
<circle cx="1303.08" cy="1997.78" r="323.062" transform="rotate(-90 1303.08 1997.78)" fill="#5850EC"/>
<path d="M1778.74 1585.57C1789.88 1604.85 1775.96 1628.96 1753.69 1628.96L684.678 1628.96C187.291 1628.96 -123.574 1090.53 125.119 659.777V659.777V659.777C373.812 229.028 995.544 229.029 1244.24 659.778L1778.74 1585.57Z" fill="#5850EC"/>
<circle cx="685.705" cy="983.515" r="323.062" transform="rotate(-60 685.705 983.515)" fill="white"/>
</g>
<defs>
<clipPath id="clip0_118_1078">
<rect width="2550" height="2550" fill="white"/>
</clipPath>
</defs>
</svg>
